<?xml version="1.0" encoding="UTF-8"?>
<!DOCTYPE svg PUBLIC "-//W3C//DTD SVG 1.1//EN" "http://www.w3.org/Graphics/SVG/1.1/DTD/svg11.dtd">
<svg xmlns="http://www.w3.org/2000/svg" version="1.1" width="192px" height="192px" style="shape-rendering:geometricPrecision; text-rendering:geometricPrecision; image-rendering:optimizeQuality; fill-rule:evenodd; clip-rule:evenodd" xmlns:xlink="http://www.w3.org/1999/xlink">
<g><path style="opacity:1" fill="#0051ad" d="M -0.5,-0.5 C 63.5,-0.5 127.5,-0.5 191.5,-0.5C 191.5,63.5 191.5,127.5 191.5,191.5C 127.5,191.5 63.5,191.5 -0.5,191.5C -0.5,127.5 -0.5,63.5 -0.5,-0.5 Z"/></g>
<g><path style="opacity:1" fill="#00001c" d="M 173.5,33.5 C 146.833,33.5 120.167,33.5 93.5,33.5C 93.5,35.5 93.5,37.5 93.5,39.5C 92.5,39.5 91.5,39.5 90.5,39.5C 90.5,37.5 90.5,35.5 90.5,33.5C 89.5,33.5 88.5,33.5 87.5,33.5C 87.5,35.5 87.5,37.5 87.5,39.5C 86.5,39.5 85.5,39.5 84.5,39.5C 84.5,37.5 84.5,35.5 84.5,33.5C 83.5,33.5 82.5,33.5 81.5,33.5C 81.5,35.5 81.5,37.5 81.5,39.5C 80.5,39.5 79.5,39.5 78.5,39.5C 78.5,37.5 78.5,35.5 78.5,33.5C 77.5,33.5 76.5,33.5 75.5,33.5C 75.5,35.5 75.5,37.5 75.5,39.5C 74.5,39.5 73.5,39.5 72.5,39.5C 72.5,37.5 72.5,35.5 72.5,33.5C 71.5,33.5 70.5,33.5 69.5,33.5C 69.5,35.5 69.5,37.5 69.5,39.5C 68.5,39.5 67.5,39.5 66.5,39.5C 66.5,37.5 66.5,35.5 66.5,33.5C 65.5,33.5 64.5,33.5 63.5,33.5C 63.5,35.5 63.5,37.5 63.5,39.5C 62.5,39.5 61.5,39.5 60.5,39.5C 60.5,37.5 60.5,35.5 60.5,33.5C 59.5,33.5 58.5,33.5 57.5,33.5C 57.5,31.5 57.5,29.5 57.5,27.5C 68.5,27.5 79.5,27.5 90.5,27.5C 90.5,25.5 90.5,23.5 90.5,21.5C 91.5,21.5 92.5,21.5 93.5,21.5C 93.5,19.5 93.5,17.5 93.5,15.5C 109.833,15.5 126.167,15.5 142.5,15.5C 142.5,17.5 142.5,19.5 142.5,21.5C 143.5,21.5 144.5,21.5 145.5,21.5C 145.5,23.5 145.5,25.5 145.5,27.5C 154.833,27.5 164.167,27.5 173.5,27.5C 173.5,29.5 173.5,31.5 173.5,33.5 Z"/></g>
<g><path style="opacity:1" fill="#0051ad" d="M 99.5,21.5 C 111.833,21.5 124.167,21.5 136.5,21.5C 136.5,23.5 136.5,25.5 136.5,27.5C 124.167,27.5 111.833,27.5 99.5,27.5C 99.5,25.5 99.5,23.5 99.5,21.5 Z"/></g>
<g><path style="opacity:1" fill="#000020" d="M 57.5,33.5 C 57.5,35.5 57.5,37.5 57.5,39.5C 58.5,39.5 59.5,39.5 60.5,39.5C 60.5,41.8333 60.5,44.1667 60.5,46.5C 61.5,46.5 62.5,46.5 63.5,46.5C 63.5,44.1667 63.5,41.8333 63.5,39.5C 64.5,39.5 65.5,39.5 66.5,39.5C 66.5,41.8333 66.5,44.1667 66.5,46.5C 67.5,46.5 68.5,46.5 69.5,46.5C 69.5,44.1667 69.5,41.8333 69.5,39.5C 70.5,39.5 71.5,39.5 72.5,39.5C 72.5,41.8333 72.5,44.1667 72.5,46.5C 73.5,46.5 74.5,46.5 75.5,46.5C 75.5,44.1667 75.5,41.8333 75.5,39.5C 76.5,39.5 77.5,39.5 78.5,39.5C 78.5,41.8333 78.5,44.1667 78.5,46.5C 79.5,46.5 80.5,46.5 81.5,46.5C 81.5,44.1667 81.5,41.8333 81.5,39.5C 82.5,39.5 83.5,39.5 84.5,39.5C 84.5,41.8333 84.5,44.1667 84.5,46.5C 85.5,46.5 86.5,46.5 87.5,46.5C 87.5,44.1667 87.5,41.8333 87.5,39.5C 88.5,39.5 89.5,39.5 90.5,39.5C 90.5,41.8333 90.5,44.1667 90.5,46.5C 91.5,46.5 92.5,46.5 93.5,46.5C 93.5,44.1667 93.5,41.8333 93.5,39.5C 94.5,39.5 95.5,39.5 96.5,39.5C 96.5,41.8333 96.5,44.1667 96.5,46.5C 97.5,46.5 98.5,46.5 99.5,46.5C 99.5,44.1667 99.5,41.8333 99.5,39.5C 100.833,39.5 102.167,39.5 103.5,39.5C 103.5,41.8333 103.5,44.1667 103.5,46.5C 104.5,46.5 105.5,46.5 106.5,46.5C 106.5,44.1667 106.5,41.8333 106.5,39.5C 107.5,39.5 108.5,39.5 109.5,39.5C 109.5,41.8333 109.5,44.1667 109.5,46.5C 110.5,46.5 111.5,46.5 112.5,46.5C 112.5,44.1667 112.5,41.8333 112.5,39.5C 113.5,39.5 114.5,39.5 115.5,39.5C 115.5,41.8333 115.5,44.1667 115.5,46.5C 116.5,46.5 117.5,46.5 118.5,46.5C 118.5,44.1667 118.5,41.8333 118.5,39.5C 119.5,39.5 120.5,39.5 121.5,39.5C 121.5,41.8333 121.5,44.1667 121.5,46.5C 139.833,46.5 158.167,46.5 176.5,46.5C 176.5,44.1667 176.5,41.8333 176.5,39.5C 175.5,39.5 174.5,39.5 173.5,39.5C 173.5,37.5 173.5,35.5 173.5,33.5C 175.5,33.5 177.5,33.5 179.5,33.5C 179.5,35.5 179.5,37.5 179.5,39.5C 180.5,39.5 181.5,39.5 182.5,39.5C 182.5,43.8333 182.5,48.1667 182.5,52.5C 181.5,52.5 180.5,52.5 179.5,52.5C 179.5,56.5 179.5,60.5 179.5,64.5C 178.5,64.5 177.5,64.5 176.5,64.5C 176.5,72.5 176.5,80.5 176.5,88.5C 175.5,88.5 174.5,88.5 173.5,88.5C 173.5,96.8333 173.5,105.167 173.5,113.5C 172.5,113.5 171.5,113.5 170.5,113.5C 170.5,121.5 170.5,129.5 170.5,137.5C 169.5,137.5 168.5,137.5 167.5,137.5C 167.5,143.5 167.5,149.5 167.5,155.5C 166.167,155.5 164.833,155.5 163.5,155.5C 163.5,157.833 163.5,160.167 163.5,162.5C 161.5,162.5 159.5,162.5 157.5,162.5C 157.5,164.5 157.5,166.5 157.5,168.5C 145.5,168.5 133.5,168.5 121.5,168.5C 121.5,170.5 121.5,172.5 121.5,174.5C 101.167,174.5 80.8333,174.5 60.5,174.5C 60.5,172.5 60.5,170.5 60.5,168.5C 50.1667,168.5 39.8333,168.5 29.5,168.5C 29.5,166.5 29.5,164.5 29.5,162.5C 24.5,162.5 19.5,162.5 14.5,162.5C 14.5,160.167 14.5,157.833 14.5,155.5C 12.5,155.5 10.5,155.5 8.5,155.5C 8.5,153.5 8.5,151.5 8.5,149.5C 12.5,149.5 16.5,149.5 20.5,149.5C 20.5,148.5 20.5,147.5 20.5,146.5C 29.8333,146.5 39.1667,146.5 48.5,146.5C 48.5,145.5 48.5,144.5 48.5,143.5C 48.5,141.5 48.5,139.5 48.5,137.5C 52.5,137.5 56.5,137.5 60.5,137.5C 60.5,129.5 60.5,121.5 60.5,113.5C 59.5,113.5 58.5,113.5 57.5,113.5C 57.5,105.167 57.5,96.8333 57.5,88.5C 56.5,88.5 55.5,88.5 54.5,88.5C 54.5,80.5 54.5,72.5 54.5,64.5C 53.5,64.5 52.5,64.5 51.5,64.5C 51.5,60.5 51.5,56.5 51.5,52.5C 50.5,52.5 49.5,52.5 48.5,52.5C 48.5,48.1667 48.5,43.8333 48.5,39.5C 49.5,39.5 50.5,39.5 51.5,39.5C 51.5,37.5 51.5,35.5 51.5,33.5C 53.5,33.5 55.5,33.5 57.5,33.5 Z"/></g>
<g><path style="opacity:1" fill="#fe8c00" d="M 173.5,33.5 C 173.5,35.5 173.5,37.5 173.5,39.5C 174.5,39.5 175.5,39.5 176.5,39.5C 176.5,41.8333 176.5,44.1667 176.5,46.5C 158.167,46.5 139.833,46.5 121.5,46.5C 121.5,44.1667 121.5,41.8333 121.5,39.5C 120.5,39.5 119.5,39.5 118.5,39.5C 118.5,41.8333 118.5,44.1667 118.5,46.5C 117.5,46.5 116.5,46.5 115.5,46.5C 115.5,44.1667 115.5,41.8333 115.5,39.5C 114.5,39.5 113.5,39.5 112.5,39.5C 112.5,41.8333 112.5,44.1667 112.5,46.5C 111.5,46.5 110.5,46.5 109.5,46.5C 109.5,44.1667 109.5,41.8333 109.5,39.5C 108.5,39.5 107.5,39.5 106.5,39.5C 106.5,41.8333 106.5,44.1667 106.5,46.5C 105.5,46.5 104.5,46.5 103.5,46.5C 103.5,44.1667 103.5,41.8333 103.5,39.5C 102.167,39.5 100.833,39.5 99.5,39.5C 99.5,41.8333 99.5,44.1667 99.5,46.5C 98.5,46.5 97.5,46.5 96.5,46.5C 96.5,44.1667 96.5,41.8333 96.5,39.5C 95.5,39.5 94.5,39.5 93.5,39.5C 93.5,37.5 93.5,35.5 93.5,33.5C 120.167,33.5 146.833,33.5 173.5,33.5 Z"/></g>
<g><path style="opacity:1" fill="#fe8c00" d="M 90.5,39.5 C 89.5,39.5 88.5,39.5 87.5,39.5C 87.5,37.5 87.5,35.5 87.5,33.5C 88.5,33.5 89.5,33.5 90.5,33.5C 90.5,35.5 90.5,37.5 90.5,39.5 Z"/></g>
<g><path style="opacity:1" fill="#fe8c00" d="M 84.5,39.5 C 83.5,39.5 82.5,39.5 81.5,39.5C 81.5,37.5 81.5,35.5 81.5,33.5C 82.5,33.5 83.5,33.5 84.5,33.5C 84.5,35.5 84.5,37.5 84.5,39.5 Z"/></g>
<g><path style="opacity:1" fill="#fe8c00" d="M 78.5,39.5 C 77.5,39.5 76.5,39.5 75.5,39.5C 75.5,37.5 75.5,35.5 75.5,33.5C 76.5,33.5 77.5,33.5 78.5,33.5C 78.5,35.5 78.5,37.5 78.5,39.5 Z"/></g>
<g><path style="opacity:1" fill="#fe8c00" d="M 72.5,39.5 C 71.5,39.5 70.5,39.5 69.5,39.5C 69.5,37.5 69.5,35.5 69.5,33.5C 70.5,33.5 71.5,33.5 72.5,33.5C 72.5,35.5 72.5,37.5 72.5,39.5 Z"/></g>
<g><path style="opacity:1" fill="#fe8c00" d="M 66.5,39.5 C 65.5,39.5 64.5,39.5 63.5,39.5C 63.5,37.5 63.5,35.5 63.5,33.5C 64.5,33.5 65.5,33.5 66.5,33.5C 66.5,35.5 66.5,37.5 66.5,39.5 Z"/></g>
<g><path style="opacity:1" fill="#fe8c00" d="M 57.5,33.5 C 58.5,33.5 59.5,33.5 60.5,33.5C 60.5,35.5 60.5,37.5 60.5,39.5C 59.5,39.5 58.5,39.5 57.5,39.5C 57.5,37.5 57.5,35.5 57.5,33.5 Z"/></g>
<g><path style="opacity:1" fill="#fe8c00" d="M 57.5,39.5 C 57.5,41.8333 57.5,44.1667 57.5,46.5C 56.5,46.5 55.5,46.5 54.5,46.5C 54.5,44.1667 54.5,41.8333 54.5,39.5C 55.5,39.5 56.5,39.5 57.5,39.5 Z"/></g>
<g><path style="opacity:1" fill="#fe8c00" d="M 60.5,39.5 C 61.5,39.5 62.5,39.5 63.5,39.5C 63.5,41.8333 63.5,44.1667 63.5,46.5C 62.5,46.5 61.5,46.5 60.5,46.5C 60.5,44.1667 60.5,41.8333 60.5,39.5 Z"/></g>
<g><path style="opacity:1" fill="#fe8c00" d="M 66.5,39.5 C 67.5,39.5 68.5,39.5 69.5,39.5C 69.5,41.8333 69.5,44.1667 69.5,46.5C 68.5,46.5 67.5,46.5 66.5,46.5C 66.5,44.1667 66.5,41.8333 66.5,39.5 Z"/></g>
<g><path style="opacity:1" fill="#fe8c00" d="M 72.5,39.5 C 73.5,39.5 74.5,39.5 75.5,39.5C 75.5,41.8333 75.5,44.1667 75.5,46.5C 74.5,46.5 73.5,46.5 72.5,46.5C 72.5,44.1667 72.5,41.8333 72.5,39.5 Z"/></g>
<g><path style="opacity:1" fill="#fe8c00" d="M 78.5,39.5 C 79.5,39.5 80.5,39.5 81.5,39.5C 81.5,41.8333 81.5,44.1667 81.5,46.5C 80.5,46.5 79.5,46.5 78.5,46.5C 78.5,44.1667 78.5,41.8333 78.5,39.5 Z"/></g>
<g><path style="opacity:1" fill="#fe8c00" d="M 84.5,39.5 C 85.5,39.5 86.5,39.5 87.5,39.5C 87.5,41.8333 87.5,44.1667 87.5,46.5C 86.5,46.5 85.5,46.5 84.5,46.5C 84.5,44.1667 84.5,41.8333 84.5,39.5 Z"/></g>
<g><path style="opacity:1" fill="#fe8c00" d="M 90.5,39.5 C 91.5,39.5 92.5,39.5 93.5,39.5C 93.5,41.8333 93.5,44.1667 93.5,46.5C 92.5,46.5 91.5,46.5 90.5,46.5C 90.5,44.1667 90.5,41.8333 90.5,39.5 Z"/></g>
<g><path style="opacity:1" fill="#fe8c00" d="M 60.5,58.5 C 59.5,58.5 58.5,58.5 57.5,58.5C 57.5,56.5 57.5,54.5 57.5,52.5C 58.5,52.5 59.5,52.5 60.5,52.5C 60.5,54.5 60.5,56.5 60.5,58.5 Z"/></g>
<g><path style="opacity:1" fill="#fe8c00" d="M 66.5,58.5 C 65.5,58.5 64.5,58.5 63.5,58.5C 63.5,56.5 63.5,54.5 63.5,52.5C 64.5,52.5 65.5,52.5 66.5,52.5C 66.5,54.5 66.5,56.5 66.5,58.5 Z"/></g>
<g><path style="opacity:1" fill="#fe8c00" d="M 72.5,58.5 C 71.5,58.5 70.5,58.5 69.5,58.5C 69.5,56.5 69.5,54.5 69.5,52.5C 70.5,52.5 71.5,52.5 72.5,52.5C 72.5,54.5 72.5,56.5 72.5,58.5 Z"/></g>
<g><path style="opacity:1" fill="#fe8c00" d="M 78.5,58.5 C 77.5,58.5 76.5,58.5 75.5,58.5C 75.5,56.5 75.5,54.5 75.5,52.5C 76.5,52.5 77.5,52.5 78.5,52.5C 78.5,54.5 78.5,56.5 78.5,58.5 Z"/></g>
<g><path style="opacity:1" fill="#fe8c00" d="M 109.5,155.5 C 113.5,155.5 117.5,155.5 121.5,155.5C 121.5,153.5 121.5,151.5 121.5,149.5C 122.5,149.5 123.5,149.5 124.5,149.5C 124.5,145.5 124.5,141.5 124.5,137.5C 125.5,137.5 126.5,137.5 127.5,137.5C 127.5,127.5 127.5,117.5 127.5,107.5C 128.5,107.5 129.5,107.5 130.5,107.5C 130.5,95.1667 130.5,82.8333 130.5,70.5C 129.5,70.5 128.5,70.5 127.5,70.5C 127.5,68.5 127.5,66.5 127.5,64.5C 120.5,64.5 113.5,64.5 106.5,64.5C 106.5,66.5 106.5,68.5 106.5,70.5C 104.167,70.5 101.833,70.5 99.5,70.5C 99.5,82.8333 99.5,95.1667 99.5,107.5C 100.833,107.5 102.167,107.5 103.5,107.5C 103.5,117.5 103.5,127.5 103.5,137.5C 104.5,137.5 105.5,137.5 106.5,137.5C 106.5,141.5 106.5,145.5 106.5,149.5C 105.5,149.5 104.5,149.5 103.5,149.5C 103.5,151.5 103.5,153.5 103.5,155.5C 102.167,155.5 100.833,155.5 99.5,155.5C 99.5,153.5 99.5,151.5 99.5,149.5C 98.5,149.5 97.5,149.5 96.5,149.5C 96.5,141.5 96.5,133.5 96.5,125.5C 95.5,125.5 94.5,125.5 93.5,125.5C 93.5,115.167 93.5,104.833 93.5,94.5C 92.5,94.5 91.5,94.5 90.5,94.5C 90.5,86.5 90.5,78.5 90.5,70.5C 88.5,70.5 86.5,70.5 84.5,70.5C 84.5,68.5 84.5,66.5 84.5,64.5C 82.5,64.5 80.5,64.5 78.5,64.5C 78.5,62.5 78.5,60.5 78.5,58.5C 79.5,58.5 80.5,58.5 81.5,58.5C 81.5,56.5 81.5,54.5 81.5,52.5C 82.5,52.5 83.5,52.5 84.5,52.5C 84.5,54.5 84.5,56.5 84.5,58.5C 85.5,58.5 86.5,58.5 87.5,58.5C 87.5,56.5 87.5,54.5 87.5,52.5C 88.5,52.5 89.5,52.5 90.5,52.5C 90.5,54.5 90.5,56.5 90.5,58.5C 91.5,58.5 92.5,58.5 93.5,58.5C 93.5,56.5 93.5,54.5 93.5,52.5C 94.5,52.5 95.5,52.5 96.5,52.5C 96.5,54.5 96.5,56.5 96.5,58.5C 97.5,58.5 98.5,58.5 99.5,58.5C 99.5,56.5 99.5,54.5 99.5,52.5C 124.167,52.5 148.833,52.5 173.5,52.5C 173.5,56.5 173.5,60.5 173.5,64.5C 172.5,64.5 171.5,64.5 170.5,64.5C 170.5,72.5 170.5,80.5 170.5,88.5C 169.5,88.5 168.5,88.5 167.5,88.5C 167.5,96.8333 167.5,105.167 167.5,113.5C 166.167,113.5 164.833,113.5 163.5,113.5C 163.5,121.5 163.5,129.5 163.5,137.5C 162.5,137.5 161.5,137.5 160.5,137.5C 160.5,143.5 160.5,149.5 160.5,155.5C 158.5,155.5 156.5,155.5 154.5,155.5C 154.5,157.833 154.5,160.167 154.5,162.5C 139.5,162.5 124.5,162.5 109.5,162.5C 109.5,160.167 109.5,157.833 109.5,155.5 Z"/></g>
<g><path style="opacity:1" fill="#fe8c00" d="M 60.5,58.5 C 61.5,58.5 62.5,58.5 63.5,58.5C 63.5,60.5 63.5,62.5 63.5,64.5C 62.5,64.5 61.5,64.5 60.5,64.5C 60.5,62.5 60.5,60.5 60.5,58.5 Z"/></g>
<g><path style="opacity:1" fill="#000021" d="M 63.5,58.5 C 64.5,58.5 65.5,58.5 66.5,58.5C 66.5,60.5 66.5,62.5 66.5,64.5C 65.5,64.5 64.5,64.5 63.5,64.5C 63.5,62.5 63.5,60.5 63.5,58.5 Z"/></g>
<g><path style="opacity:1" fill="#fe8c00" d="M 66.5,58.5 C 67.5,58.5 68.5,58.5 69.5,58.5C 69.5,60.5 69.5,62.5 69.5,64.5C 68.5,64.5 67.5,64.5 66.5,64.5C 66.5,62.5 66.5,60.5 66.5,58.5 Z"/></g>
<g><path style="opacity:1" fill="#fe8c00" d="M 72.5,58.5 C 73.5,58.5 74.5,58.5 75.5,58.5C 75.5,60.5 75.5,62.5 75.5,64.5C 74.5,64.5 73.5,64.5 72.5,64.5C 72.5,62.5 72.5,60.5 72.5,58.5 Z"/></g>
<g><path style="opacity:1" fill="#fe8c00" d="M 63.5,64.5 C 64.5,64.5 65.5,64.5 66.5,64.5C 66.5,66.5 66.5,68.5 66.5,70.5C 65.5,70.5 64.5,70.5 63.5,70.5C 63.5,68.5 63.5,66.5 63.5,64.5 Z"/></g>
<g><path style="opacity:1" fill="#000021" d="M 109.5,155.5 C 109.5,153.5 109.5,151.5 109.5,149.5C 108.5,149.5 107.5,149.5 106.5,149.5C 106.5,145.5 106.5,141.5 106.5,137.5C 105.5,137.5 104.5,137.5 103.5,137.5C 103.5,127.5 103.5,117.5 103.5,107.5C 102.167,107.5 100.833,107.5 99.5,107.5C 99.5,95.1667 99.5,82.8333 99.5,70.5C 101.833,70.5 104.167,70.5 106.5,70.5C 106.5,68.5 106.5,66.5 106.5,64.5C 113.5,64.5 120.5,64.5 127.5,64.5C 127.5,66.5 127.5,68.5 127.5,70.5C 128.5,70.5 129.5,70.5 130.5,70.5C 130.5,82.8333 130.5,95.1667 130.5,107.5C 129.5,107.5 128.5,107.5 127.5,107.5C 127.5,117.5 127.5,127.5 127.5,137.5C 126.5,137.5 125.5,137.5 124.5,137.5C 124.5,141.5 124.5,145.5 124.5,149.5C 123.5,149.5 122.5,149.5 121.5,149.5C 121.5,151.5 121.5,153.5 121.5,155.5C 117.5,155.5 113.5,155.5 109.5,155.5 Z"/></g>
<g><path style="opacity:1" fill="#000021" d="M 145.5,70.5 C 145.5,68.5 145.5,66.5 145.5,64.5C 150.5,64.5 155.5,64.5 160.5,64.5C 160.5,66.5 160.5,68.5 160.5,70.5C 161.5,70.5 162.5,70.5 163.5,70.5C 163.5,78.5 163.5,86.5 163.5,94.5C 162.5,94.5 161.5,94.5 160.5,94.5C 160.5,100.833 160.5,107.167 160.5,113.5C 159.5,113.5 158.5,113.5 157.5,113.5C 157.5,119.5 157.5,125.5 157.5,131.5C 156.5,131.5 155.5,131.5 154.5,131.5C 154.5,135.5 154.5,139.5 154.5,143.5C 153.5,143.5 152.5,143.5 151.5,143.5C 151.5,145.5 151.5,147.5 151.5,149.5C 150.5,149.5 149.5,149.5 148.5,149.5C 148.5,151.5 148.5,153.5 148.5,155.5C 144.5,155.5 140.5,155.5 136.5,155.5C 136.5,153.5 136.5,151.5 136.5,149.5C 135.5,149.5 134.5,149.5 133.5,149.5C 133.5,141.5 133.5,133.5 133.5,125.5C 134.5,125.5 135.5,125.5 136.5,125.5C 136.5,115.167 136.5,104.833 136.5,94.5C 137.5,94.5 138.5,94.5 139.5,94.5C 139.5,86.5 139.5,78.5 139.5,70.5C 141.5,70.5 143.5,70.5 145.5,70.5 Z"/></g>
<g><path style="opacity:1" fill="#fe8c00" d="M 63.5,70.5 C 63.5,72.5 63.5,74.5 63.5,76.5C 62.5,76.5 61.5,76.5 60.5,76.5C 60.5,74.5 60.5,72.5 60.5,70.5C 61.5,70.5 62.5,70.5 63.5,70.5 Z"/></g>
<g><path style="opacity:1" fill="#fe8c00" d="M 75.5,76.5 C 74.5,76.5 73.5,76.5 72.5,76.5C 72.5,74.5 72.5,72.5 72.5,70.5C 73.5,70.5 74.5,70.5 75.5,70.5C 75.5,72.5 75.5,74.5 75.5,76.5 Z"/></g>
<g><path style="opacity:1" fill="#fe8c00" d="M 87.5,143.5 C 87.5,141.5 87.5,139.5 87.5,137.5C 86.5,137.5 85.5,137.5 84.5,137.5C 84.5,135.5 84.5,133.5 84.5,131.5C 83.5,131.5 82.5,131.5 81.5,131.5C 81.5,129.5 81.5,127.5 81.5,125.5C 82.5,125.5 83.5,125.5 84.5,125.5C 84.5,123.5 84.5,121.5 84.5,119.5C 83.5,119.5 82.5,119.5 81.5,119.5C 81.5,117.5 81.5,115.5 81.5,113.5C 80.5,113.5 79.5,113.5 78.5,113.5C 78.5,111.5 78.5,109.5 78.5,107.5C 79.5,107.5 80.5,107.5 81.5,107.5C 81.5,105.5 81.5,103.5 81.5,101.5C 80.5,101.5 79.5,101.5 78.5,101.5C 78.5,99.1667 78.5,96.8333 78.5,94.5C 77.5,94.5 76.5,94.5 75.5,94.5C 75.5,92.5 75.5,90.5 75.5,88.5C 76.5,88.5 77.5,88.5 78.5,88.5C 78.5,86.5 78.5,84.5 78.5,82.5C 77.5,82.5 76.5,82.5 75.5,82.5C 75.5,80.5 75.5,78.5 75.5,76.5C 76.5,76.5 77.5,76.5 78.5,76.5C 78.5,74.5 78.5,72.5 78.5,70.5C 79.5,70.5 80.5,70.5 81.5,70.5C 81.5,72.5 81.5,74.5 81.5,76.5C 82.5,76.5 83.5,76.5 84.5,76.5C 84.5,82.5 84.5,88.5 84.5,94.5C 85.5,94.5 86.5,94.5 87.5,94.5C 87.5,104.833 87.5,115.167 87.5,125.5C 88.5,125.5 89.5,125.5 90.5,125.5C 90.5,131.5 90.5,137.5 90.5,143.5C 89.5,143.5 88.5,143.5 87.5,143.5 Z"/></g>
<g><path style="opacity:1" fill="#fe8c00" d="M 112.5,76.5 C 111.5,76.5 110.5,76.5 109.5,76.5C 109.5,74.5 109.5,72.5 109.5,70.5C 110.5,70.5 111.5,70.5 112.5,70.5C 112.5,72.5 112.5,74.5 112.5,76.5 Z"/></g>
<g><path style="opacity:1" fill="#fe8c00" d="M 112.5,137.5 C 113.5,137.5 114.5,137.5 115.5,137.5C 115.5,135.5 115.5,133.5 115.5,131.5C 114.5,131.5 113.5,131.5 112.5,131.5C 112.5,129.5 112.5,127.5 112.5,125.5C 113.5,125.5 114.5,125.5 115.5,125.5C 115.5,123.5 115.5,121.5 115.5,119.5C 114.5,119.5 113.5,119.5 112.5,119.5C 112.5,117.5 112.5,115.5 112.5,113.5C 113.5,113.5 114.5,113.5 115.5,113.5C 115.5,111.5 115.5,109.5 115.5,107.5C 114.5,107.5 113.5,107.5 112.5,107.5C 112.5,105.5 112.5,103.5 112.5,101.5C 113.5,101.5 114.5,101.5 115.5,101.5C 115.5,99.1667 115.5,96.8333 115.5,94.5C 114.5,94.5 113.5,94.5 112.5,94.5C 112.5,92.5 112.5,90.5 112.5,88.5C 113.5,88.5 114.5,88.5 115.5,88.5C 115.5,86.5 115.5,84.5 115.5,82.5C 114.5,82.5 113.5,82.5 112.5,82.5C 112.5,80.5 112.5,78.5 112.5,76.5C 113.5,76.5 114.5,76.5 115.5,76.5C 115.5,74.5 115.5,72.5 115.5,70.5C 116.5,70.5 117.5,70.5 118.5,70.5C 118.5,72.5 118.5,74.5 118.5,76.5C 119.5,76.5 120.5,76.5 121.5,76.5C 121.5,74.5 121.5,72.5 121.5,70.5C 122.5,70.5 123.5,70.5 124.5,70.5C 124.5,82.8333 124.5,95.1667 124.5,107.5C 123.5,107.5 122.5,107.5 121.5,107.5C 121.5,117.5 121.5,127.5 121.5,137.5C 120.5,137.5 119.5,137.5 118.5,137.5C 118.5,141.5 118.5,145.5 118.5,149.5C 117.5,149.5 116.5,149.5 115.5,149.5C 115.5,147.5 115.5,145.5 115.5,143.5C 114.5,143.5 113.5,143.5 112.5,143.5C 112.5,141.5 112.5,139.5 112.5,137.5 Z"/></g>
<g><path style="opacity:1" fill="#fe8c00" d="M 145.5,70.5 C 146.5,70.5 147.5,70.5 148.5,70.5C 148.5,72.5 148.5,74.5 148.5,76.5C 147.5,76.5 146.5,76.5 145.5,76.5C 145.5,74.5 145.5,72.5 145.5,70.5 Z"/></g>
<g><path style="opacity:1" fill="#fe8c00" d="M 142.5,143.5 C 142.5,141.5 142.5,139.5 142.5,137.5C 143.5,137.5 144.5,137.5 145.5,137.5C 145.5,135.5 145.5,133.5 145.5,131.5C 144.5,131.5 143.5,131.5 142.5,131.5C 142.5,129.5 142.5,127.5 142.5,125.5C 143.5,125.5 144.5,125.5 145.5,125.5C 145.5,123.5 145.5,121.5 145.5,119.5C 144.5,119.5 143.5,119.5 142.5,119.5C 142.5,117.5 142.5,115.5 142.5,113.5C 143.5,113.5 144.5,113.5 145.5,113.5C 145.5,111.5 145.5,109.5 145.5,107.5C 146.5,107.5 147.5,107.5 148.5,107.5C 148.5,105.5 148.5,103.5 148.5,101.5C 147.5,101.5 146.5,101.5 145.5,101.5C 145.5,99.1667 145.5,96.8333 145.5,94.5C 146.5,94.5 147.5,94.5 148.5,94.5C 148.5,92.5 148.5,90.5 148.5,88.5C 149.5,88.5 150.5,88.5 151.5,88.5C 151.5,86.5 151.5,84.5 151.5,82.5C 150.5,82.5 149.5,82.5 148.5,82.5C 148.5,80.5 148.5,78.5 148.5,76.5C 149.5,76.5 150.5,76.5 151.5,76.5C 151.5,74.5 151.5,72.5 151.5,70.5C 152.5,70.5 153.5,70.5 154.5,70.5C 154.5,72.5 154.5,74.5 154.5,76.5C 155.5,76.5 156.5,76.5 157.5,76.5C 157.5,82.5 157.5,88.5 157.5,94.5C 156.5,94.5 155.5,94.5 154.5,94.5C 154.5,100.833 154.5,107.167 154.5,113.5C 153.5,113.5 152.5,113.5 151.5,113.5C 151.5,119.5 151.5,125.5 151.5,131.5C 150.5,131.5 149.5,131.5 148.5,131.5C 148.5,135.5 148.5,139.5 148.5,143.5C 146.5,143.5 144.5,143.5 142.5,143.5 Z"/></g>
<g><path style="opacity:1" fill="#fe8c00" d="M 63.5,76.5 C 64.5,76.5 65.5,76.5 66.5,76.5C 66.5,78.5 66.5,80.5 66.5,82.5C 65.5,82.5 64.5,82.5 63.5,82.5C 63.5,80.5 63.5,78.5 63.5,76.5 Z"/></g>
<g><path style="opacity:1" fill="#fe8c00" d="M 109.5,76.5 C 109.5,78.5 109.5,80.5 109.5,82.5C 108.5,82.5 107.5,82.5 106.5,82.5C 106.5,80.5 106.5,78.5 106.5,76.5C 107.5,76.5 108.5,76.5 109.5,76.5 Z"/></g>
<g><path style="opacity:1" fill="#000021" d="M 109.5,76.5 C 110.5,76.5 111.5,76.5 112.5,76.5C 112.5,78.5 112.5,80.5 112.5,82.5C 111.5,82.5 110.5,82.5 109.5,82.5C 109.5,80.5 109.5,78.5 109.5,76.5 Z"/></g>
<g><path style="opacity:1" fill="#fe8c00" d="M 63.5,82.5 C 63.5,84.5 63.5,86.5 63.5,88.5C 62.5,88.5 61.5,88.5 60.5,88.5C 60.5,86.5 60.5,84.5 60.5,82.5C 61.5,82.5 62.5,82.5 63.5,82.5 Z"/></g>
<g><path style="opacity:1" fill="#fe8c00" d="M 75.5,82.5 C 75.5,84.5 75.5,86.5 75.5,88.5C 74.5,88.5 73.5,88.5 72.5,88.5C 72.5,86.5 72.5,84.5 72.5,82.5C 73.5,82.5 74.5,82.5 75.5,82.5 Z"/></g>
<g><path style="opacity:1" fill="#000021" d="M 75.5,82.5 C 76.5,82.5 77.5,82.5 78.5,82.5C 78.5,84.5 78.5,86.5 78.5,88.5C 77.5,88.5 76.5,88.5 75.5,88.5C 75.5,86.5 75.5,84.5 75.5,82.5 Z"/></g>
<g><path style="opacity:1" fill="#fe8c00" d="M 109.5,82.5 C 110.5,82.5 111.5,82.5 112.5,82.5C 112.5,84.5 112.5,86.5 112.5,88.5C 111.5,88.5 110.5,88.5 109.5,88.5C 109.5,86.5 109.5,84.5 109.5,82.5 Z"/></g>
<g><path style="opacity:1" fill="#000021" d="M 112.5,82.5 C 113.5,82.5 114.5,82.5 115.5,82.5C 115.5,84.5 115.5,86.5 115.5,88.5C 114.5,88.5 113.5,88.5 112.5,88.5C 112.5,86.5 112.5,84.5 112.5,82.5 Z"/></g>
<g><path style="opacity:1" fill="#fe8c00" d="M 148.5,82.5 C 148.5,84.5 148.5,86.5 148.5,88.5C 147.5,88.5 146.5,88.5 145.5,88.5C 145.5,86.5 145.5,84.5 145.5,82.5C 146.5,82.5 147.5,82.5 148.5,82.5 Z"/></g>
<g><path style="opacity:1" fill="#000021" d="M 148.5,82.5 C 149.5,82.5 150.5,82.5 151.5,82.5C 151.5,84.5 151.5,86.5 151.5,88.5C 150.5,88.5 149.5,88.5 148.5,88.5C 148.5,86.5 148.5,84.5 148.5,82.5 Z"/></g>
<g><path style="opacity:1" fill="#fe8c00" d="M 63.5,88.5 C 64.5,88.5 65.5,88.5 66.5,88.5C 66.5,90.5 66.5,92.5 66.5,94.5C 65.5,94.5 64.5,94.5 63.5,94.5C 63.5,92.5 63.5,90.5 63.5,88.5 Z"/></g>
<g><path style="opacity:1" fill="#fe8c00" d="M 109.5,88.5 C 109.5,90.5 109.5,92.5 109.5,94.5C 108.5,94.5 107.5,94.5 106.5,94.5C 106.5,92.5 106.5,90.5 106.5,88.5C 107.5,88.5 108.5,88.5 109.5,88.5 Z"/></g>
<g><path style="opacity:1" fill="#000021" d="M 109.5,88.5 C 110.5,88.5 111.5,88.5 112.5,88.5C 112.5,90.5 112.5,92.5 112.5,94.5C 111.5,94.5 110.5,94.5 109.5,94.5C 109.5,92.5 109.5,90.5 109.5,88.5 Z"/></g>
<g><path style="opacity:1" fill="#fe8c00" d="M 66.5,94.5 C 67.5,94.5 68.5,94.5 69.5,94.5C 69.5,96.8333 69.5,99.1667 69.5,101.5C 68.5,101.5 67.5,101.5 66.5,101.5C 66.5,99.1667 66.5,96.8333 66.5,94.5 Z"/></g>
<g><path style="opacity:1" fill="#fe8c00" d="M 109.5,94.5 C 110.5,94.5 111.5,94.5 112.5,94.5C 112.5,96.8333 112.5,99.1667 112.5,101.5C 111.5,101.5 110.5,101.5 109.5,101.5C 109.5,99.1667 109.5,96.8333 109.5,94.5 Z"/></g>
<g><path style="opacity:1" fill="#000021" d="M 112.5,94.5 C 113.5,94.5 114.5,94.5 115.5,94.5C 115.5,96.8333 115.5,99.1667 115.5,101.5C 114.5,101.5 113.5,101.5 112.5,101.5C 112.5,99.1667 112.5,96.8333 112.5,94.5 Z"/></g>
<g><path style="opacity:1" fill="#fe8c00" d="M 66.5,101.5 C 66.5,103.5 66.5,105.5 66.5,107.5C 65.5,107.5 64.5,107.5 63.5,107.5C 63.5,105.5 63.5,103.5 63.5,101.5C 64.5,101.5 65.5,101.5 66.5,101.5 Z"/></g>
<g><path style="opacity:1" fill="#fe8c00" d="M 78.5,101.5 C 78.5,103.5 78.5,105.5 78.5,107.5C 77.5,107.5 76.5,107.5 75.5,107.5C 75.5,105.5 75.5,103.5 75.5,101.5C 76.5,101.5 77.5,101.5 78.5,101.5 Z"/></g>
<g><path style="opacity:1" fill="#000021" d="M 78.5,101.5 C 79.5,101.5 80.5,101.5 81.5,101.5C 81.5,103.5 81.5,105.5 81.5,107.5C 80.5,107.5 79.5,107.5 78.5,107.5C 78.5,105.5 78.5,103.5 78.5,101.5 Z"/></g>
<g><path style="opacity:1" fill="#fe8c00" d="M 109.5,101.5 C 109.5,103.5 109.5,105.5 109.5,107.5C 108.5,107.5 107.5,107.5 106.5,107.5C 106.5,105.5 106.5,103.5 106.5,101.5C 107.5,101.5 108.5,101.5 109.5,101.5 Z"/></g>
<g><path style="opacity:1" fill="#000021" d="M 109.5,101.5 C 110.5,101.5 111.5,101.5 112.5,101.5C 112.5,103.5 112.5,105.5 112.5,107.5C 111.5,107.5 110.5,107.5 109.5,107.5C 109.5,105.5 109.5,103.5 109.5,101.5 Z"/></g>
<g><path style="opacity:1" fill="#fe8c00" d="M 145.5,101.5 C 145.5,103.5 145.5,105.5 145.5,107.5C 144.5,107.5 143.5,107.5 142.5,107.5C 142.5,105.5 142.5,103.5 142.5,101.5C 143.5,101.5 144.5,101.5 145.5,101.5 Z"/></g>
<g><path style="opacity:1" fill="#000021" d="M 145.5,101.5 C 146.5,101.5 147.5,101.5 148.5,101.5C 148.5,103.5 148.5,105.5 148.5,107.5C 147.5,107.5 146.5,107.5 145.5,107.5C 145.5,105.5 145.5,103.5 145.5,101.5 Z"/></g>
<g><path style="opacity:1" fill="#fe8c00" d="M 66.5,107.5 C 67.5,107.5 68.5,107.5 69.5,107.5C 69.5,109.5 69.5,111.5 69.5,113.5C 68.5,113.5 67.5,113.5 66.5,113.5C 66.5,111.5 66.5,109.5 66.5,107.5 Z"/></g>
<g><path style="opacity:1" fill="#fe8c00" d="M 109.5,107.5 C 110.5,107.5 111.5,107.5 112.5,107.5C 112.5,109.5 112.5,111.5 112.5,113.5C 111.5,113.5 110.5,113.5 109.5,113.5C 109.5,111.5 109.5,109.5 109.5,107.5 Z"/></g>
<g><path style="opacity:1" fill="#000021" d="M 112.5,107.5 C 113.5,107.5 114.5,107.5 115.5,107.5C 115.5,109.5 115.5,111.5 115.5,113.5C 114.5,113.5 113.5,113.5 112.5,113.5C 112.5,111.5 112.5,109.5 112.5,107.5 Z"/></g>
<g><path style="opacity:1" fill="#fe8c00" d="M 69.5,113.5 C 70.5,113.5 71.5,113.5 72.5,113.5C 72.5,115.5 72.5,117.5 72.5,119.5C 71.5,119.5 70.5,119.5 69.5,119.5C 69.5,117.5 69.5,115.5 69.5,113.5 Z"/></g>
<g><path style="opacity:1" fill="#fe8c00" d="M 69.5,119.5 C 69.5,121.5 69.5,123.5 69.5,125.5C 68.5,125.5 67.5,125.5 66.5,125.5C 66.5,123.5 66.5,121.5 66.5,119.5C 67.5,119.5 68.5,119.5 69.5,119.5 Z"/></g>
<g><path style="opacity:1" fill="#fe8c00" d="M 81.5,119.5 C 81.5,121.5 81.5,123.5 81.5,125.5C 80.5,125.5 79.5,125.5 78.5,125.5C 78.5,123.5 78.5,121.5 78.5,119.5C 79.5,119.5 80.5,119.5 81.5,119.5 Z"/></g>
<g><path style="opacity:1" fill="#000021" d="M 81.5,119.5 C 82.5,119.5 83.5,119.5 84.5,119.5C 84.5,121.5 84.5,123.5 84.5,125.5C 83.5,125.5 82.5,125.5 81.5,125.5C 81.5,123.5 81.5,121.5 81.5,119.5 Z"/></g>
<g><path style="opacity:1" fill="#fe8c00" d="M 112.5,119.5 C 112.5,121.5 112.5,123.5 112.5,125.5C 111.5,125.5 110.5,125.5 109.5,125.5C 109.5,123.5 109.5,121.5 109.5,119.5C 110.5,119.5 111.5,119.5 112.5,119.5 Z"/></g>
<g><path style="opacity:1" fill="#000021" d="M 112.5,119.5 C 113.5,119.5 114.5,119.5 115.5,119.5C 115.5,121.5 115.5,123.5 115.5,125.5C 114.5,125.5 113.5,125.5 112.5,125.5C 112.5,123.5 112.5,121.5 112.5,119.5 Z"/></g>
<g><path style="opacity:1" fill="#fe8c00" d="M 69.5,125.5 C 70.5,125.5 71.5,125.5 72.5,125.5C 72.5,127.5 72.5,129.5 72.5,131.5C 71.5,131.5 70.5,131.5 69.5,131.5C 69.5,129.5 69.5,127.5 69.5,125.5 Z"/></g>
<g><path style="opacity:1" fill="#fe8c00" d="M 69.5,131.5 C 69.5,133.5 69.5,135.5 69.5,137.5C 68.5,137.5 67.5,137.5 66.5,137.5C 66.5,135.5 66.5,133.5 66.5,131.5C 67.5,131.5 68.5,131.5 69.5,131.5 Z"/></g>
<g><path style="opacity:1" fill="#000021" d="M 69.5,131.5 C 70.5,131.5 71.5,131.5 72.5,131.5C 72.5,133.5 72.5,135.5 72.5,137.5C 71.5,137.5 70.5,137.5 69.5,137.5C 69.5,135.5 69.5,133.5 69.5,131.5 Z"/></g>
<g><path style="opacity:1" fill="#fe8c00" d="M 72.5,131.5 C 73.5,131.5 74.5,131.5 75.5,131.5C 75.5,133.5 75.5,135.5 75.5,137.5C 74.5,137.5 73.5,137.5 72.5,137.5C 72.5,135.5 72.5,133.5 72.5,131.5 Z"/></g>
<g><path style="opacity:1" fill="#fe8c00" d="M 112.5,131.5 C 112.5,133.5 112.5,135.5 112.5,137.5C 111.5,137.5 110.5,137.5 109.5,137.5C 109.5,135.5 109.5,133.5 109.5,131.5C 110.5,131.5 111.5,131.5 112.5,131.5 Z"/></g>
<g><path style="opacity:1" fill="#000021" d="M 112.5,131.5 C 113.5,131.5 114.5,131.5 115.5,131.5C 115.5,133.5 115.5,135.5 115.5,137.5C 114.5,137.5 113.5,137.5 112.5,137.5C 112.5,135.5 112.5,133.5 112.5,131.5 Z"/></g>
<g><path style="opacity:1" fill="#fe8c00" d="M 142.5,131.5 C 142.5,133.5 142.5,135.5 142.5,137.5C 141.5,137.5 140.5,137.5 139.5,137.5C 139.5,135.5 139.5,133.5 139.5,131.5C 140.5,131.5 141.5,131.5 142.5,131.5 Z"/></g>
<g><path style="opacity:1" fill="#000021" d="M 142.5,131.5 C 143.5,131.5 144.5,131.5 145.5,131.5C 145.5,133.5 145.5,135.5 145.5,137.5C 144.5,137.5 143.5,137.5 142.5,137.5C 142.5,135.5 142.5,133.5 142.5,131.5 Z"/></g>
<g><path style="opacity:1" fill="#fe8c00" d="M 69.5,137.5 C 70.5,137.5 71.5,137.5 72.5,137.5C 72.5,139.5 72.5,141.5 72.5,143.5C 71.5,143.5 70.5,143.5 69.5,143.5C 69.5,141.5 69.5,139.5 69.5,137.5 Z"/></g>
<g><path style="opacity:1" fill="#fe8c00" d="M 84.5,137.5 C 84.5,139.5 84.5,141.5 84.5,143.5C 83.5,143.5 82.5,143.5 81.5,143.5C 81.5,141.5 81.5,139.5 81.5,137.5C 82.5,137.5 83.5,137.5 84.5,137.5 Z"/></g>
<g><path style="opacity:1" fill="#000021" d="M 84.5,137.5 C 85.5,137.5 86.5,137.5 87.5,137.5C 87.5,139.5 87.5,141.5 87.5,143.5C 86.5,143.5 85.5,143.5 84.5,143.5C 84.5,141.5 84.5,139.5 84.5,137.5 Z"/></g>
<g><path style="opacity:1" fill="#000000" d="M 48.5,143.5 C 48.5,144.5 48.5,145.5 48.5,146.5C 39.1667,146.5 29.8333,146.5 20.5,146.5C 20.5,145.5 20.5,144.5 20.5,143.5C 29.8333,143.5 39.1667,143.5 48.5,143.5 Z"/></g>
<g><path style="opacity:1" fill="#fe8c00" d="M 72.5,143.5 C 73.5,143.5 74.5,143.5 75.5,143.5C 75.5,145.5 75.5,147.5 75.5,149.5C 74.5,149.5 73.5,149.5 72.5,149.5C 72.5,147.5 72.5,145.5 72.5,143.5 Z"/></g>
<g><path style="opacity:1" fill="#fe8c00" d="M 84.5,143.5 C 85.5,143.5 86.5,143.5 87.5,143.5C 87.5,145.5 87.5,147.5 87.5,149.5C 86.5,149.5 85.5,149.5 84.5,149.5C 84.5,147.5 84.5,145.5 84.5,143.5 Z"/></g>
<g><path style="opacity:1" fill="#fe8c00" d="M 142.5,143.5 C 142.5,145.5 142.5,147.5 142.5,149.5C 141.5,149.5 140.5,149.5 139.5,149.5C 139.5,147.5 139.5,145.5 139.5,143.5C 140.5,143.5 141.5,143.5 142.5,143.5 Z"/></g>
<g><path style="opacity:1" fill="#fe8c00" d="M 72.5,149.5 C 72.5,151.5 72.5,153.5 72.5,155.5C 71.5,155.5 70.5,155.5 69.5,155.5C 69.5,153.5 69.5,151.5 69.5,149.5C 70.5,149.5 71.5,149.5 72.5,149.5 Z"/></g>
<g><path style="opacity:1" fill="#fe8c00" d="M 75.5,149.5 C 76.5,149.5 77.5,149.5 78.5,149.5C 78.5,151.5 78.5,153.5 78.5,155.5C 77.5,155.5 76.5,155.5 75.5,155.5C 75.5,153.5 75.5,151.5 75.5,149.5 Z"/></g>
<g><path style="opacity:1" fill="#fe8c00" d="M 96.5,149.5 C 96.5,151.5 96.5,153.5 96.5,155.5C 95.5,155.5 94.5,155.5 93.5,155.5C 93.5,153.5 93.5,151.5 93.5,149.5C 94.5,149.5 95.5,149.5 96.5,149.5 Z"/></g>
<g><path style="opacity:1" fill="#000021" d="M 96.5,149.5 C 97.5,149.5 98.5,149.5 99.5,149.5C 99.5,151.5 99.5,153.5 99.5,155.5C 98.5,155.5 97.5,155.5 96.5,155.5C 96.5,153.5 96.5,151.5 96.5,149.5 Z"/></g>
<g><path style="opacity:1" fill="#000021" d="M 106.5,149.5 C 106.5,151.5 106.5,153.5 106.5,155.5C 105.5,155.5 104.5,155.5 103.5,155.5C 103.5,153.5 103.5,151.5 103.5,149.5C 104.5,149.5 105.5,149.5 106.5,149.5 Z"/></g>
<g><path style="opacity:1" fill="#fe8c00" d="M 106.5,149.5 C 107.5,149.5 108.5,149.5 109.5,149.5C 109.5,151.5 109.5,153.5 109.5,155.5C 108.5,155.5 107.5,155.5 106.5,155.5C 106.5,153.5 106.5,151.5 106.5,149.5 Z"/></g>
<g><path style="opacity:1" fill="#fe8c00" d="M 78.5,155.5 C 79.5,155.5 80.5,155.5 81.5,155.5C 81.5,157.833 81.5,160.167 81.5,162.5C 80.5,162.5 79.5,162.5 78.5,162.5C 78.5,160.167 78.5,157.833 78.5,155.5 Z"/></g>
<g><path style="opacity:1" fill="#fe8c00" d="M 84.5,155.5 C 85.5,155.5 86.5,155.5 87.5,155.5C 87.5,157.833 87.5,160.167 87.5,162.5C 86.5,162.5 85.5,162.5 84.5,162.5C 84.5,160.167 84.5,157.833 84.5,155.5 Z"/></g>
<g><path style="opacity:1" fill="#fe8c00" d="M 93.5,155.5 C 93.5,157.833 93.5,160.167 93.5,162.5C 92.5,162.5 91.5,162.5 90.5,162.5C 90.5,160.167 90.5,157.833 90.5,155.5C 91.5,155.5 92.5,155.5 93.5,155.5 Z"/></g>
<g><path style="opacity:1" fill="#fe8c00" d="M 96.5,155.5 C 97.5,155.5 98.5,155.5 99.5,155.5C 99.5,157.833 99.5,160.167 99.5,162.5C 98.5,162.5 97.5,162.5 96.5,162.5C 96.5,160.167 96.5,157.833 96.5,155.5 Z"/></g>
<g><path style="opacity:1" fill="#fe8c00" d="M 103.5,155.5 C 104.5,155.5 105.5,155.5 106.5,155.5C 106.5,157.833 106.5,160.167 106.5,162.5C 105.5,162.5 104.5,162.5 103.5,162.5C 103.5,160.167 103.5,157.833 103.5,155.5 Z"/></g>
</svg>
